<mxfile host="app.diagrams.net" modified="2023-03-28T14:43:44.031Z" agent="Mozilla/5.0 (X11; Ubuntu; Linux aarch64; rv:109.0) Gecko/20100101 Firefox/111.0" etag="QWjgL-txTwitNrXVeIfE" version="21.1.1" type="device">
  <diagram name="Page-1" id="LyqZY6KkNUmO3at2b9Nw">
    <mxGraphModel dx="466" dy="625" grid="1" gridSize="10" guides="1" tooltips="1" connect="1" arrows="1" fold="1" page="1" pageScale="1" pageWidth="1100" pageHeight="850" math="0" shadow="0">
      <root>
        <mxCell id="0" />
        <mxCell id="1" parent="0" />
        <mxCell id="TQ_MRLcAaZdKzZCNnS61-9" style="edgeStyle=orthogonalEdgeStyle;rounded=0;orthogonalLoop=1;jettySize=auto;html=1;entryX=0;entryY=0.5;entryDx=0;entryDy=0;exitX=1;exitY=0.5;exitDx=0;exitDy=0;" edge="1" parent="1" source="tiBrjMvVy3Kj4YKHYdIc-1" target="TQ_MRLcAaZdKzZCNnS61-11">
          <mxGeometry relative="1" as="geometry">
            <mxPoint x="190" y="259.9899999999999" as="targetPoint" />
          </mxGeometry>
        </mxCell>
        <mxCell id="tiBrjMvVy3Kj4YKHYdIc-1" value="camera detects the object" style="rounded=1;whiteSpace=wrap;html=1;fontSize=7;" parent="1" vertex="1">
          <mxGeometry x="10" y="207" width="90" height="36" as="geometry" />
        </mxCell>
        <mxCell id="tiBrjMvVy3Kj4YKHYdIc-2" value="sends the location of where it will be, and the ticks count to the location" style="rounded=1;whiteSpace=wrap;html=1;fontSize=7;" parent="1" vertex="1">
          <mxGeometry x="10" y="257" width="90" height="36" as="geometry" />
        </mxCell>
        <mxCell id="tiBrjMvVy3Kj4YKHYdIc-3" value="robot will move to the location and wait for the object to come " style="rounded=1;whiteSpace=wrap;html=1;fontSize=7;" parent="1" vertex="1">
          <mxGeometry x="10" y="305.5" width="90" height="36" as="geometry" />
        </mxCell>
        <mxCell id="tiBrjMvVy3Kj4YKHYdIc-4" value="" style="rounded=1;whiteSpace=wrap;html=1;fontSize=7;" parent="1" vertex="1">
          <mxGeometry x="10" y="800" width="90" height="36" as="geometry" />
        </mxCell>
        <mxCell id="tiBrjMvVy3Kj4YKHYdIc-5" value="" style="rounded=1;whiteSpace=wrap;html=1;fontSize=7;" parent="1" vertex="1">
          <mxGeometry x="10" y="740" width="90" height="36" as="geometry" />
        </mxCell>
        <mxCell id="tiBrjMvVy3Kj4YKHYdIc-6" value="if no answer from the pc then move to neutral pick position " style="rounded=1;whiteSpace=wrap;html=1;fontSize=7;" parent="1" vertex="1">
          <mxGeometry x="10" y="560" width="90" height="36" as="geometry" />
        </mxCell>
        <mxCell id="tiBrjMvVy3Kj4YKHYdIc-7" value="Robot sends the encoder tickcount to pc" style="rounded=1;whiteSpace=wrap;html=1;fontSize=7;" parent="1" vertex="1">
          <mxGeometry x="10" y="130" width="90" height="36" as="geometry" />
        </mxCell>
        <mxCell id="tiBrjMvVy3Kj4YKHYdIc-8" value="computer sends the location of the next object " style="rounded=1;whiteSpace=wrap;html=1;fontSize=7;" parent="1" vertex="1">
          <mxGeometry x="10" y="510" width="90" height="36" as="geometry" />
        </mxCell>
        <mxCell id="tiBrjMvVy3Kj4YKHYdIc-9" value="it will pick the object" style="rounded=1;whiteSpace=wrap;html=1;fontSize=7;" parent="1" vertex="1">
          <mxGeometry x="10" y="354.5" width="90" height="36" as="geometry" />
        </mxCell>
        <mxCell id="tiBrjMvVy3Kj4YKHYdIc-10" value="&lt;div style=&quot;font-size: 7px;&quot;&gt;if not picked up send signal, not picked &lt;br style=&quot;font-size: 7px;&quot;&gt;&lt;/div&gt;" style="rounded=1;whiteSpace=wrap;html=1;fontSize=7;" parent="1" vertex="1">
          <mxGeometry x="10" y="460" width="90" height="36" as="geometry" />
        </mxCell>
        <mxCell id="tiBrjMvVy3Kj4YKHYdIc-11" value="if picked up then go and drop and send signal dropped&amp;nbsp; " style="rounded=1;whiteSpace=wrap;html=1;fontSize=7;" parent="1" vertex="1">
          <mxGeometry x="10" y="407" width="90" height="36" as="geometry" />
        </mxCell>
        <mxCell id="TQ_MRLcAaZdKzZCNnS61-11" value="&lt;div&gt;&lt;font style=&quot;font-size: 6px;&quot;&gt;- Get the X and &lt;/font&gt;&lt;font style=&quot;font-size: 6px;&quot;&gt;Y of the centerpoint &lt;br&gt;&lt;/font&gt;&lt;/div&gt;&lt;div&gt;&lt;font style=&quot;font-size: 6px;&quot;&gt;- Change the location based on the robots view&lt;/font&gt;&lt;/div&gt;&lt;div&gt;&lt;font style=&quot;font-size: 6px;&quot;&gt;&lt;br&gt;&lt;/font&gt;&lt;/div&gt;" style="text;html=1;strokeColor=none;fillColor=none;align=left;verticalAlign=top;whiteSpace=wrap;rounded=0;fontSize=6;" vertex="1" parent="1">
          <mxGeometry x="130" y="201.5" width="130" height="47" as="geometry" />
        </mxCell>
        <mxCell id="TQ_MRLcAaZdKzZCNnS61-12" value="&lt;div&gt;&lt;font style=&quot;font-size: 6px;&quot;&gt;- Send the moveL with the coordinates&lt;br&gt;&lt;/font&gt;&lt;/div&gt;&lt;div&gt;&lt;font style=&quot;font-size: 6px;&quot;&gt;&lt;br&gt;&lt;/font&gt;&lt;/div&gt;" style="text;html=1;strokeColor=none;fillColor=none;align=left;verticalAlign=top;whiteSpace=wrap;rounded=0;fontSize=6;" vertex="1" parent="1">
          <mxGeometry x="130" y="251.5" width="130" height="47" as="geometry" />
        </mxCell>
        <mxCell id="TQ_MRLcAaZdKzZCNnS61-13" value="&lt;div&gt;&lt;font style=&quot;font-size: 6px;&quot;&gt;- Move to the location and wait&lt;br&gt;&lt;/font&gt;&lt;/div&gt;&lt;div&gt;&lt;font style=&quot;font-size: 6px;&quot;&gt;- Pick the object when the encoder count matches &lt;br&gt;&lt;/font&gt;&lt;/div&gt;" style="text;html=1;strokeColor=none;fillColor=none;align=left;verticalAlign=top;whiteSpace=wrap;rounded=0;fontSize=6;" vertex="1" parent="1">
          <mxGeometry x="130" y="300" width="170" height="47" as="geometry" />
        </mxCell>
        <mxCell id="TQ_MRLcAaZdKzZCNnS61-14" value="&lt;div&gt;&lt;font style=&quot;font-size: 6px;&quot;&gt;- Pick the object when the encoder count matches &lt;br&gt;&lt;/font&gt;&lt;/div&gt;&lt;div&gt;&lt;font style=&quot;font-size: 6px;&quot;&gt;- &lt;br&gt;&lt;/font&gt;&lt;/div&gt;" style="text;html=1;strokeColor=none;fillColor=none;align=left;verticalAlign=top;whiteSpace=wrap;rounded=0;fontSize=6;" vertex="1" parent="1">
          <mxGeometry x="130" y="349" width="170" height="47" as="geometry" />
        </mxCell>
        <mxCell id="TQ_MRLcAaZdKzZCNnS61-15" value="&lt;div&gt;&lt;font style=&quot;font-size: 6px;&quot;&gt;- Check the vacumm after picking up.&lt;br&gt;&lt;/font&gt;&lt;/div&gt;&lt;div&gt;- If picked up. drop and send signal &lt;br&gt;&lt;/div&gt;&lt;div&gt;- Type of signal &lt;br&gt;&lt;/div&gt;" style="text;html=1;strokeColor=none;fillColor=none;align=left;verticalAlign=top;whiteSpace=wrap;rounded=0;fontSize=6;" vertex="1" parent="1">
          <mxGeometry x="130" y="402" width="170" height="47" as="geometry" />
        </mxCell>
      </root>
    </mxGraphModel>
  </diagram>
</mxfile>
